<?xml version="1.0" encoding="UTF-8"?>
<svg id="Livello_3" data-name="Livello 3" xmlns="http://www.w3.org/2000/svg" viewBox="0 0 385.57 111.49">
  <defs>
    <style>
      .cls-1 {
        fill: #e7503f;
      }

      .cls-2 {
        fill: #fff;
      }
    </style>
  </defs>
  <g id="Livello_1" data-name="Livello 1">
    <g>
      <path class="cls-1" d="M245.98,111.49c-30.74,0-55.74-25.01-55.74-55.74S215.24,0,245.98,0s55.74,25.01,55.74,55.74-25.01,55.74-55.74,55.74ZM245.98,21.89c-18.67,0-33.85,15.19-33.85,33.85s15.19,33.85,33.85,33.85,33.85-15.19,33.85-33.85-15.19-33.85-33.85-33.85Z"/>
      <path class="cls-2" d="M319.42,110.57h-14.42v-18.34c0-12.43,10.08-22.51,22.51-22.51h11.88c12.49,0,23.4-9.4,24.24-21.86.91-13.66-9.94-25.07-23.41-25.07h-27.65c-4.13,0-7.47-3.35-7.47-7.47V.91h34.22c24.89,0,45.85,19.68,46.25,44.57.41,25.8-19.66,46.13-45.35,46.13h-12.71c-.34,0-.62.28-.62.62v10.87c0,4.13-3.35,7.47-7.47,7.47Z"/>
      <path class="cls-2" d="M167.29,78.96c8.63-8.36,13.86-20.19,13.65-33.48-.4-24.89-21.36-44.57-46.25-44.57h-34.22v14.42c0,4.13,3.35,7.47,7.47,7.47h26.81c13.37,0,24.74,10.95,24.29,24.31-.43,12.75-10.58,22.61-23.45,22.61v.02c-25.13.46-46.24,17.62-52.68,40.82h23.35c5.52-11.21,17.04-18.96,30.35-18.96s24.83,7.75,30.35,18.96h23.35c-3.64-13.1-11.96-24.28-23.03-31.61Z"/>
      <path class="cls-2" d="M35.12,0H0v14.42c0,4.13,3.35,7.47,7.47,7.47h27.65c18.67,0,33.85,15.19,33.85,33.85s-15.19,33.85-33.85,33.85H7.47c-4.13,0-7.47,3.35-7.47,7.47v14.42h35.12c30.74,0,55.74-25.01,55.74-55.74S65.86,0,35.12,0Z"/>
    </g>
  </g>
</svg>
