<?xml version="1.0"?>
<svg id="Livello_2" data-name="Livello 2" xmlns="http://www.w3.org/2000/svg" viewBox="0 0 385.57 151.16">
  <g id="Livello_1" data-name="Livello 1">
    <g>
      <g>
        <path fill="#FFFFFF" d="M245.98,111.49c-30.74,0-55.74-25.01-55.74-55.74S215.24,0,245.98,0s55.74,25.01,55.74,55.74-25.01,55.74-55.74,55.74ZM245.98,21.89c-18.67,0-33.85,15.19-33.85,33.85s15.19,33.85,33.85,33.85,33.85-15.19,33.85-33.85-15.19-33.85-33.85-33.85Z"></path>
        <path fill="#FFFFFF" d="M319.42,110.57h-14.42v-18.34c0-12.43,10.08-22.51,22.51-22.51h11.88c12.49,0,23.4-9.4,24.24-21.86.91-13.66-9.94-25.07-23.41-25.07h-27.65c-4.13,0-7.47-3.35-7.47-7.47V.91h34.22c24.89,0,45.85,19.68,46.25,44.57.41,25.8-19.66,46.13-45.35,46.13h-12.71c-.34,0-.62.28-.62.62v10.87c0,4.13-3.35,7.47-7.47,7.47Z"></path>
        <path fill="#FFFFFF" d="M167.29,78.96c8.63-8.36,13.86-20.19,13.65-33.48-.4-24.89-21.36-44.57-46.25-44.57h-34.22v14.42c0,4.13,3.35,7.47,7.47,7.47h26.81c13.37,0,24.74,10.95,24.29,24.31-.43,12.75-10.58,22.61-23.45,22.61v.02c-25.13.46-46.24,17.62-52.68,40.82h23.35c5.52-11.21,17.04-18.96,30.35-18.96s24.83,7.75,30.35,18.96h23.35c-3.64-13.1-11.96-24.28-23.03-31.61Z"></path>
        <path fill="#FFFFFF" d="M35.12,0H0v14.42C0,18.54,3.35,21.89,7.47,21.89h27.65c18.67,0,33.85,15.19,33.85,33.85s-15.19,33.85-33.85,33.85H7.47C3.35,89.6,0,92.94,0,97.07v14.42h35.12c30.74,0,55.74-25.01,55.74-55.74S65.86,0,35.12,0Z"></path>
      </g>
      <g>
        <polygon fill="#FFFFFF" points="8.74 144.52 8.35 144.52 3.73 133.89 0 133.89 0 150.72 2.54 150.72 2.54 137.15 6.92 147.26 9.96 147.26 14.34 137.05 14.34 150.72 17.08 150.72 17.08 133.89 13.3 133.89 8.74 144.52"></polygon>
        <path fill="#FFFFFF" d="M25.77,133.89l-5.9,16.83h2.77l1.64-4.75h7.63l1.69,4.75h2.86l-6.09-16.83h-4.59ZM25.1,143.57l2.52-7.31h.83l2.6,7.31h-5.95Z"></path>
        <path fill="#FFFFFF" d="M48.47,144.29c.95-.38,1.68-.97,2.21-1.75s.8-1.79.8-3.02v-.37c0-1.23-.26-2.24-.78-3.02s-1.26-1.37-2.21-1.76c-.95-.39-2.07-.59-3.37-.59h-5.88v16.94h2.77v-5.86h3.11c.07,0,.14,0,.21,0l4.24,5.86h3.3l-4.71-6.32c.1-.04.22-.07.32-.11ZM42,136.17h3.48c.66,0,1.23.14,1.71.41.48.28.84.65,1.09,1.13.25.48.38,1.02.38,1.64s-.13,1.18-.38,1.66c-.25.48-.62.85-1.09,1.12-.48.27-1.05.4-1.71.4h-3.48v-6.36Z"></path>
        <polygon fill="#FFFFFF" points="68.17 133.89 65.01 133.89 58.37 141.76 58.37 133.89 55.61 133.89 55.61 150.72 58.37 150.72 58.37 142.86 59.87 142.86 66.37 150.72 69.76 150.72 61.92 141.28 68.17 133.89"></polygon>
        <polygon fill="#FFFFFF" points="74.56 143.36 81.33 143.36 81.33 140.97 74.56 140.97 74.56 136.29 81.77 136.29 81.77 133.89 74.56 133.89 74.09 133.89 71.81 133.89 71.81 150.72 74.09 150.72 74.56 150.72 81.98 150.72 81.98 148.32 74.56 148.32 74.56 143.36"></polygon>
        <polygon fill="#FFFFFF" points="83.92 136.33 88.9 136.33 88.9 150.72 91.66 150.72 91.66 136.33 96.66 136.33 96.66 133.89 83.92 133.89 83.92 136.33"></polygon>
        <rect fill="#FFFFFF" x="99.52" y="133.89" width="2.77" height="16.83"></rect>
        <polygon fill="#FFFFFF" points="119.49 148.34 119.19 148.34 111.37 133.89 106.85 133.89 106.85 150.72 109.44 150.72 109.44 136.26 109.74 136.26 117.55 150.72 122.12 150.72 122.12 133.89 119.49 133.89 119.49 148.34"></polygon>
        <path fill="#FFFFFF" d="M133.73,144.52h5.12v2.36c-.38.39-.82.73-1.35,1.02-.91.5-1.98.75-3.19.75-.88,0-1.68-.14-2.41-.43-.73-.28-1.36-.7-1.88-1.24-.52-.54-.93-1.22-1.21-2.02-.28-.8-.43-1.72-.43-2.77,0-.94.13-1.79.39-2.55.26-.76.64-1.41,1.13-1.96.49-.55,1.08-.97,1.76-1.27.68-.3,1.44-.45,2.27-.45s1.59.15,2.29.45c.7.3,1.28.73,1.75,1.3.47.57.75,1.27.84,2.1h2.81c-.11-1.26-.5-2.37-1.18-3.33-.68-.96-1.58-1.71-2.7-2.26-1.12-.54-2.4-.82-3.83-.82-1.34,0-2.53.24-3.56.71-1.04.48-1.91,1.12-2.63,1.94-.71.82-1.26,1.73-1.63,2.74-.37,1.01-.55,2.05-.55,3.11v.51c0,1.18.2,2.31.59,3.37.39,1.06.96,1.99,1.72,2.79.75.8,1.67,1.43,2.74,1.88,1.08.45,2.31.68,3.69.68,1.58,0,2.98-.29,4.18-.86,1.21-.58,2.19-1.39,2.94-2.43v-3.32h1.41v-2.17h-9.11v2.17Z"></path>
        <path fill="#FFFFFF" d="M158.06,141.54h2.5c-.03,1.57-.24,2.89-.63,3.94-.07.18-.15.34-.22.5l-3.81-4.08c-.65-.69-1.12-1.31-1.42-1.84-.3-.54-.45-1.12-.45-1.75,0-.75.2-1.33.6-1.73.4-.4,1.11-.6,2.14-.6.29,0,.67.01,1.13.04s.93.06,1.41.1c.48.05.87.08,1.18.12v-2.31c-.48-.06-1.02-.12-1.64-.17-.61-.05-1.18-.08-1.71-.08-1.32,0-2.4.18-3.24.53-.84.35-1.45.86-1.83,1.53s-.58,1.5-.58,2.48c0,.6.08,1.15.25,1.66.11.32.27.65.47.99-.76.46-1.41,1.05-1.94,1.78-.62.86-.93,1.85-.93,2.97v.32c0,.97.25,1.85.75,2.64s1.2,1.42,2.11,1.88,1.96.69,3.16.69,2.2-.23,3.14-.68c.51-.25.98-.56,1.42-.93l1.1,1.18h3.11l-2.73-2.92c.43-.71.78-1.52,1.05-2.43.33-1.13.49-2.41.52-3.83h1.32v-2.07h-6.22v2.07ZM158.11,148.03c-.78.56-1.67.84-2.69.84-.68,0-1.28-.12-1.82-.37-.54-.25-.96-.61-1.26-1.08-.3-.48-.45-1.04-.45-1.71,0-.75.19-1.43.56-2.04.28-.45.63-.78,1.02-1.07.23.28.49.56.77.87l4.08,4.37c-.07.06-.14.13-.21.18Z"></path>
        <path fill="#FFFFFF" d="M183.09,147.57c-.92.67-2.06,1-3.41,1-.94,0-1.76-.16-2.48-.48s-1.31-.78-1.79-1.36c-.48-.58-.83-1.26-1.07-2.02s-.36-1.57-.36-2.43c0-.91.12-1.74.36-2.5.24-.76.59-1.43,1.05-1.99s1.04-1.01,1.74-1.34c.7-.32,1.5-.48,2.41-.48s1.66.15,2.36.44c.7.29,1.28.73,1.73,1.3s.74,1.29.86,2.16h2.79c-.12-1.31-.51-2.44-1.16-3.4-.65-.96-1.53-1.71-2.64-2.25s-2.42-.81-3.94-.81-2.72.25-3.79.76c-1.07.51-1.94,1.18-2.61,2.01-.67.83-1.16,1.75-1.49,2.77-.32,1.01-.48,2.04-.48,3.07v.51c0,.94.16,1.91.47,2.92.31,1.01.81,1.94,1.48,2.81s1.54,1.57,2.63,2.1c1.08.53,2.39.8,3.93.8s2.94-.29,4.06-.86,2.01-1.35,2.65-2.33,1.05-2.06,1.2-3.24h-2.81c-.2,1.24-.76,2.2-1.68,2.87Z"></path>
        <path fill="#FFFFFF" d="M204.92,136.18c-.74-.84-1.65-1.51-2.74-2.02-1.09-.51-2.37-.76-3.85-.76s-2.76.25-3.86.76c-1.1.51-2.01,1.18-2.74,2.02-.73.84-1.28,1.76-1.64,2.78-.36,1.01-.54,2.03-.54,3.04v.51c0,.92.17,1.89.52,2.89.35,1.01.88,1.95,1.6,2.82.72.88,1.63,1.58,2.73,2.11s2.41.8,3.93.8,2.81-.27,3.92-.8,2.02-1.23,2.73-2.11c.72-.88,1.25-1.82,1.6-2.82.35-1.01.53-1.97.53-2.89v-.51c0-1.01-.18-2.03-.54-3.04-.36-1.01-.91-1.94-1.65-2.78ZM203.9,144.68c-.27.75-.66,1.42-1.19,2.01s-1.15,1.05-1.89,1.38-1.57.51-2.49.51-1.75-.17-2.49-.51c-.74-.34-1.37-.8-1.89-1.38s-.92-1.25-1.19-2.01c-.27-.75-.4-1.55-.4-2.4,0-.89.13-1.72.4-2.48s.66-1.43,1.19-2.01,1.15-1.03,1.89-1.35c.74-.32,1.57-.48,2.49-.48s1.75.16,2.49.48,1.36.77,1.88,1.35.91,1.24,1.19,2.01.42,1.59.42,2.48c0,.85-.13,1.64-.4,2.4Z"></path>
        <polygon fill="#FFFFFF" points="219.29 144.52 218.89 144.52 214.28 133.89 210.55 133.89 210.55 150.72 213.09 150.72 213.09 137.15 217.47 147.26 220.51 147.26 224.89 137.05 224.89 150.72 227.63 150.72 227.63 133.89 223.85 133.89 219.29 144.52"></polygon>
        <path fill="#FFFFFF" d="M243.29,144.22c0,.88-.17,1.65-.51,2.31-.34.66-.83,1.17-1.46,1.52s-1.43.53-2.36.53-1.73-.18-2.37-.54c-.65-.36-1.14-.87-1.48-1.53s-.51-1.42-.51-2.28v-10.33h-2.77v10.1c0,1.43.27,2.68.82,3.76.54,1.08,1.34,1.91,2.4,2.5,1.05.59,2.36.89,3.91.89s2.86-.3,3.91-.89c1.05-.59,1.85-1.43,2.39-2.5.54-1.08.81-2.33.81-3.76v-10.1h-2.77v10.33Z"></path>
        <polygon fill="#FFFFFF" points="262.88 148.34 262.58 148.34 254.77 133.89 250.25 133.89 250.25 150.72 252.83 150.72 252.83 136.26 253.13 136.26 260.94 150.72 265.51 150.72 265.51 133.89 262.88 133.89 262.88 148.34"></polygon>
        <rect fill="#FFFFFF" x="270.07" y="133.89" width="2.77" height="16.83"></rect>
        <path fill="#FFFFFF" d="M288.26,147.57c-.92.67-2.06,1-3.41,1-.94,0-1.76-.16-2.48-.48s-1.31-.78-1.79-1.36c-.48-.58-.83-1.26-1.07-2.02s-.36-1.57-.36-2.43c0-.91.12-1.74.36-2.5.24-.76.59-1.43,1.05-1.99s1.04-1.01,1.74-1.34c.7-.32,1.5-.48,2.41-.48s1.66.15,2.36.44c.7.29,1.28.73,1.73,1.3s.74,1.29.86,2.16h2.79c-.12-1.31-.51-2.44-1.16-3.4-.65-.96-1.53-1.71-2.64-2.25s-2.42-.81-3.94-.81-2.72.25-3.79.76c-1.07.51-1.94,1.18-2.61,2.01-.67.83-1.16,1.75-1.49,2.77-.32,1.01-.48,2.04-.48,3.07v.51c0,.94.16,1.91.47,2.92.31,1.01.81,1.94,1.48,2.81s1.54,1.57,2.63,2.1c1.08.53,2.39.8,3.93.8s2.94-.29,4.06-.86,2.01-1.35,2.65-2.33,1.05-2.06,1.2-3.24h-2.81c-.2,1.24-.76,2.2-1.68,2.87Z"></path>
        <path fill="#FFFFFF" d="M299.81,133.89l-5.9,16.83h2.77l1.64-4.75h7.63l1.69,4.75h2.86l-6.09-16.83h-4.59ZM299.14,143.57l2.52-7.31h.83l2.6,7.31h-5.95Z"></path>
        <polygon fill="#FFFFFF" points="315.22 148.12 324.87 136.68 324.87 133.89 312.49 133.89 312.49 136.17 321.68 136.17 321.91 136.48 312.26 147.93 312.26 150.72 325.06 150.72 325.06 148.41 315.43 148.41 315.22 148.12"></polygon>
        <rect fill="#FFFFFF" x="328.35" y="133.89" width="2.77" height="16.83"></rect>
        <path fill="#FFFFFF" d="M350,136.18c-.74-.84-1.65-1.51-2.74-2.02-1.09-.51-2.37-.76-3.85-.76s-2.76.25-3.86.76c-1.1.51-2.01,1.18-2.74,2.02-.73.84-1.28,1.76-1.64,2.78-.36,1.01-.54,2.03-.54,3.04v.51c0,.92.17,1.89.52,2.89.35,1.01.88,1.95,1.6,2.82.72.88,1.63,1.58,2.73,2.11s2.41.8,3.93.8,2.81-.27,3.92-.8,2.02-1.23,2.73-2.11c.72-.88,1.25-1.82,1.6-2.82.35-1.01.53-1.97.53-2.89v-.51c0-1.01-.18-2.03-.54-3.04-.36-1.01-.91-1.94-1.65-2.78ZM348.98,144.68c-.27.75-.66,1.42-1.19,2.01s-1.15,1.05-1.89,1.38-1.57.51-2.49.51-1.75-.17-2.49-.51c-.74-.34-1.37-.8-1.89-1.38s-.92-1.25-1.19-2.01c-.27-.75-.4-1.55-.4-2.4,0-.89.13-1.72.4-2.48s.66-1.43,1.19-2.01,1.15-1.03,1.89-1.35c.74-.32,1.57-.48,2.49-.48s1.75.16,2.49.48,1.36.77,1.88,1.35.91,1.24,1.19,2.01.42,1.59.42,2.48c0,.85-.13,1.64-.4,2.4Z"></path>
        <polygon fill="#FFFFFF" points="368.26 148.34 367.96 148.34 360.14 133.89 355.63 133.89 355.63 150.72 358.21 150.72 358.21 136.26 358.51 136.26 366.32 150.72 370.89 150.72 370.89 133.89 368.26 133.89 368.26 148.34"></polygon>
        <polygon fill="#FFFFFF" points="378.15 148.32 378.15 143.36 384.93 143.36 384.93 140.97 378.15 140.97 378.15 136.29 385.36 136.29 385.36 133.89 378.15 133.89 377.69 133.89 375.4 133.89 375.4 150.72 377.69 150.72 378.15 150.72 385.57 150.72 385.57 148.32 378.15 148.32"></polygon>
      </g>
    </g>
  </g>
</svg>