<?xml version="1.0"?>
<svg id="Livello_3" data-name="Livello 3" xmlns="http://www.w3.org/2000/svg" viewBox="0 0 491.83 524.25">
  <g id="Livello_1" data-name="Livello 1">
    <g>
      <path fill="#FFFFFF" d="M235.98,366.42c-21.26,0-38.3-5.46-50.77-16.29-14.77-12.83-22.59-32.1-23.89-58.9-2.21-45.1,6.72-73.38,27.3-86.46,18.1-11.51,42.67-9.19,73.01,6.87,2.75,1.46,5.47,2.88,8.16,4.28,30.77,16.06,62.58,32.67,65.67,69.74.14,1.69.21,3.39.21,5.05,0,19.7-9.87,38.27-27.79,52.3-15.96,12.49-37.52,20.8-59.15,22.79-4.41.41-8.66.61-12.76.61ZM214.58,198.7c-9.53,0-18,2.34-25.36,7.01-20.21,12.85-28.97,40.8-26.79,85.46,1.29,26.48,8.98,45.49,23.51,58.11,14.63,12.71,35.72,17.9,62.69,15.41,21.43-1.97,42.78-10.19,58.57-22.56,17.64-13.81,27.36-32.08,27.36-51.42,0-1.63-.07-3.3-.21-4.96-3.04-36.46-34.58-52.93-65.08-68.85-2.69-1.41-5.42-2.83-8.17-4.29-17.53-9.28-33.08-13.93-46.53-13.93ZM235.81,335.11c-13.37,0-23.45-2.89-30.06-8.63-7.98-6.93-12.28-18.96-13.14-36.78-1.51-31.04,3.16-52.36,12.82-58.5,7.68-4.89,22.43-2,41.54,8.12,2.8,1.48,5.58,2.94,8.33,4.37,30.21,15.77,47.37,25.61,48.96,44.58h0c2.03,24.33-28.55,43.61-58.38,46.35-3.54.33-6.89.49-10.06.49ZM214.85,229.98c-3.57,0-6.53.72-8.82,2.17-9.31,5.92-13.8,26.88-12.3,57.5.85,17.5,5.03,29.27,12.76,35.99,7.93,6.89,21.15,9.54,39.28,7.87,29.3-2.7,59.34-21.48,57.37-45.15h0c-1.54-18.38-18.5-28.1-48.36-43.68-2.75-1.43-5.53-2.89-8.33-4.37-12.9-6.83-23.72-10.33-31.6-10.33Z"></path>
      <path fill="#FFFFFF" d="M216.8,445.32c-45.92,0-83.22-14.28-106.99-41.47-26.27-30.05-33.45-73.26-20.2-121.66,16.61-60.71,61.1-167.31,122.46-181.78,16.86-3.97,42.42-2.61,68.42,26.44,19.44,21.72,40.92,36.9,61.68,51.58,36.71,25.94,71.38,50.45,71.38,101.11,0,1.99-.05,4.03-.16,6.08-2.9,54.99-20.51,94.19-53.82,119.83-31.73,24.42-73.3,32.71-109.78,37.59-11.41,1.53-22.43,2.28-32.99,2.28ZM225.94,99.9c-4.97,0-9.55.64-13.61,1.6-60.86,14.35-105.1,120.51-121.64,180.99-13.14,48.03-6.05,90.87,19.97,120.63,28.98,33.15,78.35,46.94,138.99,38.81,36.33-4.86,77.73-13.11,109.25-37.37,33.04-25.43,50.51-64.36,53.39-119,.11-2.03.16-4.05.16-6.02,0-50.08-34.44-74.42-70.91-100.19-20.82-14.72-42.35-29.93-61.88-51.75-19.35-21.62-38.41-27.7-53.72-27.7ZM216.64,414.01c-36.59,0-65.59-10.58-83.25-30.78-12.38-14.16-18.92-33.37-18.92-55.54,0-11.72,1.8-24.24,5.35-37.23,9.86-36.05,25.22-73.28,42.15-102.17,19.24-32.84,39.59-53.22,57.29-57.39,4.66-1.1,18.84-4.44,37.89,16.84,21.81,24.37,45.79,41.31,66.95,56.27,37.13,26.24,58.14,42.68,58.14,75.52,0,1.43-.04,2.92-.12,4.44-4.87,92.44-53.73,116.94-136.48,128.02-10.1,1.35-19.79,2.02-28.99,2.02ZM225.94,131.15c-2.9,0-5.08.51-6.43.83-17.4,4.1-37.49,24.3-56.58,56.87-16.88,28.8-32.2,65.94-42.04,101.9-3.53,12.89-5.31,25.32-5.31,36.94,0,21.9,6.45,40.85,18.65,54.81,21.85,24.99,61.36,35.07,111.25,28.38,82.17-11,130.68-35.3,135.52-126.97.08-1.49.12-2.97.12-4.38,0-32.35-19.77-47.83-57.67-74.61-21.2-14.98-45.24-31.97-67.14-56.43-13.02-14.54-23.63-17.33-30.37-17.33Z"></path>
      <path fill="#FFFFFF" d="M198.25,524.25c-27.6,0-53.43-3.57-77.22-10.69-37.53-11.24-68.46-31.36-89.45-58.18-36.76-46.98-41.6-110.55-13.61-179.01,14.65-35.84,44.95-105.03,83.25-165.77C145.26,40.73,185.28,4.7,223.55.43c27.59-3.08,51.98,10.26,72.51,39.63,30.54,43.7,68.69,71.36,102.35,95.77,48.05,34.85,93.42,67.75,93.42,134.72,0,4.31-.19,8.79-.57,13.31-7.52,89.21-33.02,147.65-80.27,183.91-43.21,33.16-98.3,43.41-160.62,52.53-17.98,2.63-35.38,3.95-52.13,3.95ZM231.2,1.12c-2.48,0-4.99.14-7.53.42-37.92,4.22-77.67,40.09-121.52,109.65-38.25,60.67-68.52,129.8-83.16,165.6-27.83,68.07-23.05,131.24,13.46,177.9,20.85,26.64,51.59,46.63,88.89,57.8,38.06,11.4,81.41,13.66,128.86,6.71,62.16-9.1,117.11-19.32,160.1-52.31,46.98-36.05,72.35-94.24,79.83-183.11.38-4.49.57-8.94.57-13.22,0-66.4-45.14-99.14-92.94-133.8-33.75-24.47-71.97-52.2-102.62-96.05C276.77,14.41,255.28,1.12,231.2,1.12ZM198.66,492.85c-24.78,0-48-3.12-68.65-9.3-31.28-9.37-56.79-25.79-73.77-47.48-29.54-37.75-32.83-90.25-9.29-147.85,14.27-34.9,43.73-102.21,80.75-160.92,37.02-58.72,72.29-92.72,99.31-95.73,5.71-.64,23.08-2.57,43.37,26.45h0c33.56,48.02,73.97,77.32,109.63,103.18,49.31,35.76,84.93,61.6,80.02,120.04-6.72,79.8-28.37,131.18-68.12,161.68-37.23,28.57-88.18,37.91-146.09,46.38-16.15,2.36-31.96,3.54-47.17,3.54ZM231.34,32.4c-1.75,0-3.17.16-4.2.27-26.67,2.97-61.65,36.79-98.49,95.22-36.97,58.64-66.41,125.89-80.66,160.75-23.39,57.21-20.15,109.32,9.13,146.74,16.83,21.51,42.15,37.79,73.21,47.1,33.17,9.94,73.05,11.91,115.34,5.72,57.74-8.45,108.56-17.76,145.57-46.17,39.49-30.3,61-81.43,67.69-160.89,4.85-57.82-30.56-83.5-79.57-119.05-35.73-25.91-76.22-55.27-109.89-103.44-16.22-23.2-30.43-26.25-38.14-26.25Z"></path>
    </g>
  </g>
</svg>